<svg width="882" height="1023" xmlns="http://www.w3.org/2000/svg">

 <g label="Layer 1" id="imagebot_2">
  <g label="Layer 1" transform="translate(-0, 0.00531006) matrix(1, 0, 0, 1, 66, -20.8653)" id="imagebot_3">
   <g id="imagebot_4">
    <path fill="#fcfcfc" d="M-66,532.35999L-66,20.85999L375,20.85999L816,20.85999L816,532.35999L816,1043.85999L375,1043.85999L-66,1043.85999L-66,532.35999z" id="imagebot_6"/>
    <path fill="#000000" d="M291.93,1030.6 C315.435,990.899 324.072,977.376 336.338,961.071 C349.145,944.047 350.946,942.129 370.185,924.997 C381.361,915.045 393.641,904.013 397.474,900.479 L404.444,894.055 L402.674,879.702 C401.701,871.808 400.647,863.864 400.333,862.048 L399.762,858.747 L363.633,859.405 C325.391,860.102 302.135,859.125 291.504,856.378 C288.204,855.525 281.454,852.855 276.504,850.444 S259.629,843.707 250.004,840.829 C209.313,828.662 181.646,817.472 169.371,808.219 C159.491,800.779 110.931,753.529 44.0015,686.219 C6.87648,648.879 -25.2335,616.209 -27.3535,613.619 C-29.5235,610.962 -31.1583,607.908 -31.0943,606.631 C-31.0317,605.383 -31.0092,596.487 -31.0442,586.862 C-31.1505,557.642 -28.477,542.638 -15.9882,502.362 C-1.83419,456.717 -1.62519,455.269 1.98881,377.862 C3.54281,344.579 9.85931,293.653 15.6268,267.912 C20.9951,243.949 25.3995,233.738 43.5058,203.275 C64.7438,167.543 74.4278,157.815 117.502,128.945 C126.302,123.047 138.902,114.912 145.502,110.868 C152.102,106.823 158.852,102.293 160.502,100.801 C166.464,95.4087 173.46,93.433 177.996,95.8606 C179.436,96.6312 184.135,95.2895 198.68,89.9546 C233.263,77.2706 243.645,72.8775 254.271,66.4345 C273.211,54.9655 278.691,53.3436 298.011,53.4776 C316.655,53.6075 340.41,56.8147 368.511,62.9962 C400.962,70.1342 409.485,74.4162 421.694,89.7122 C431.101,101.498 433.531,105.228 441.99,120.876 C450.545,136.7 451.943,138.825 466.176,157.639 C485.71,183.46 493.006,196.035 494.598,206.626 C495.225,210.798 495.309,210.876 499.173,210.876 C503.756,210.876 507.461,212.581 514.837,218.083 C525.929,226.358 533.707,228.401 563.51,230.869 C599.588,233.857 624.955,241.745 645.398,256.333 C662.876,268.805 695.613,300.541 711.773,320.678 C737.003,352.118 767.143,406.29 778.37,440.378 C784.332,458.482 786.15,469.153 786.717,489.378 C787.904,531.773 779.628,559.253 747.925,618.178 C737.623,637.326 731.722,647.254 721.652,662.377 C713.325,674.884 680.38,722 666.08,741.854 C656.229,755.53 654.124,759.527 650.528,771.37 C644.375,791.636 639.59,796.504 614.649,807.878 C603.703,812.87 601.94,814.081 591.795,823.579 C576.446,837.95 567.422,842.152 546.01,844.898 C541.335,845.498 518.385,846.397 495.01,846.897 C450.593,847.847 442.07,848.576 438.603,851.726 C435.345,854.687 432.899,855.665 425.556,856.944 L418.745,858.13 L419.231,869.916 C419.663,880.408 420.01,882.204 422.397,886.277 L425.078,890.851 L433.794,890.254 L442.509,889.657 L470.764,906.518 C486.304,915.791 501.824,924.957 505.252,926.887 C512.266,930.834 513.514,933.236 509.501,935.065 C506.932,936.235 507.031,936.31 512.68,937.469 C521.423,939.264 528.616,942.874 537.602,949.98 C542.053,953.5 547.678,957.771 550.102,959.473 C552.526,961.174 566.66,973.277 581.51,986.366 C596.36,999.456 616.948,1017.58 627.26,1026.65 C637.572,1035.71 646.01,1043.3 646.01,1043.5 C646.01,1043.71 637.064,1043.88 626.13,1043.88 L606.25,1043.88 L588.995,1025.13 C563.034,996.92 538.083,974.304 506.158,950.047 L484.788,933.737 L456.718,920.767 C441.279,913.636 428.468,907.982 428.248,908.201 C427.923,908.525 438.516,1019.67 440.67,1038.54 L441.269,1043.79 L428.79,1043.79 L416.311,1043.79 L415.689,1024.54 C415.347,1013.95 414.519,986.278 413.848,963.041 C413.178,939.803 412.247,920.791 411.78,920.791 C411.313,920.791 405.463,925.178 398.779,930.541 C389.723,937.807 382.79,944.656 371.56,957.428 C358.08,972.778 354.14,978.208 334,1009.14 L311.5,1043.74 L297.79,1043.75 L284.08,1043.76 L291.925,1030.51 L291.93,1030.6 z M412.97,841.83 C424.771,840.932 426.545,840.55 429.546,838.26 C431.395,836.85 435.065,835.044 437.703,834.247 C444.121,832.307 466.828,830.912 492.498,830.881 C517.473,830.851 543.858,829.323 553.326,827.357 C564.72,824.992 569.949,821.941 581.605,810.856 C591.868,801.096 592.894,800.408 608.387,792.904 C630.054,782.41 630.378,782.074 635.879,764.365 C639.698,752.069 643.476,745.327 657.236,726.252 C691.427,678.854 714.311,645.126 725.01,626.365 C735.308,608.306 754.41,570.115 758.771,558.865 C773.208,521.622 774.881,481.316 763.431,446.585 C751.311,409.819 718.993,353.266 693.016,323.365 C676.24,304.056 647.13,276.917 633.095,267.5 C618.32,257.588 598.103,250.924 575.326,248.46 C567.721,247.637 554.831,246.25 546.683,245.378 C527.27,243.3 518.524,240.527 508.352,233.229 C504.06,230.149 499.951,227.401 499.221,227.121 C498.468,226.832 494.289,230.13 489.568,234.738 C480.011,244.066 477.736,244.757 472.804,239.825 C468.879,235.9 469.461,232.256 474.967,226.282 C479.858,220.976 480.497,218.588 478.982,211.287 C476.595,199.793 472.845,193.444 452.304,166.127 C439.804,149.487 437.254,145.507 423.604,121.207 C415.704,107.147 404.294,92.7011 398.324,89.2021 C384.624,81.1741 326.974,69.7861 298.504,69.4861 C283.554,69.3283 278.045,70.8624 265.004,78.8153 C250.726,87.5225 247.485,88.9693 214.22,101.479 C197.326,107.833 181.929,113.648 180.004,114.401 C178.079,115.155 174.659,115.791 172.404,115.815 C167.562,115.867 159.49,120.463 130.733,139.542 C97.0389,161.897 85.3709,171.405 74.4139,185.437 C67.8225,193.878 49.7399,223.495 43.0189,236.859 C33.4679,255.848 27.5949,283.156 21.6209,336.359 C18.5686,363.54 18.2657,367.771 16.9677,401.359 C15.0263,451.595 12.8343,464.694 -1.04831,509.019 C-12.9403,546.987 -14.4773,555.477 -14.4563,583.072 L-14.4403,603.783 L-5.02442,613.572 C33.1646,653.273 149.206,768.782 164.666,782.492 L170.826,787.952 L173.252,785.526 C176.558,782.221 183.742,780.865 197.948,780.865 C213.32,780.865 228.449,782.449 236.336,784.885 C243.753,787.176 259.334,796.624 259.816,799.122 C260.341,801.85 257.289,801.336 240.677,795.9 C215.341,787.611 207.321,786.523 189.035,788.896 C184.926,789.429 179.579,789.94 177.152,790.032 L172.74,790.199 L176.123,793.038 C181.098,797.214 196.081,805.143 207.506,809.647 C219.059,814.202 235.407,819.629 259.503,826.908 C268.851,829.732 279.201,833.542 282.503,835.374 C290.292,839.697 298.089,841.883 309.382,842.909 C320.849,843.951 395.299,843.175 412.982,841.83 z M344.5,828.17 C325.839,826.533 317.486,823.31 309.474,814.656 C301.189,805.707 301.143,801.519 309.315,800.193 C312.788,799.629 313.075,799.793 314.466,803.123 C316.417,807.791 324.233,814.391 330.697,816.829 C337.217,819.288 362.285,821.222 376.499,820.361 C383.867,819.915 389.566,818.81 398.151,816.162 C413.93,811.294 416.856,812.717 408.873,821.378 C402.555,828.233 399.201,828.89 371.568,828.689 C358.88,828.596 346.7,828.363 344.5,828.169 z M478.32,820.418 C473.413,818.883 467.392,815.336 466.726,813.587 C466.086,811.905 467.428,808.573 469.406,806.931 C470.834,805.746 471.514,806.086 474.774,809.618 C479.095,814.297 484.007,815.519 494.548,814.534 C501.057,813.927 504.299,812.772 511.995,808.32 C516.229,805.871 517.034,805.753 525.584,806.335 C536.513,807.079 545.998,805.239 553.592,800.902 C557.548,798.643 560.038,796.016 564.771,789.104 C572.123,778.37 572.95,777.632 577.179,778.038 C584.578,778.748 580.961,785.72 565.214,801.101 C554.488,811.578 551.571,813.021 542.777,812.2 C537.11,811.671 534.794,812.085 522.927,815.749 C515.539,818.03 506.793,820.335 503.493,820.87 C495.27,822.205 483.35,821.99 478.317,820.416 z M434.99,806.848 C434.075,805.138 434.453,804.34 437.502,801.547 C440.613,798.697 441.215,797.382 442.024,791.674 C442.936,785.228 451.289,762.699 458.03,748.504 L461.285,741.647 L460.666,728.004 C459.857,710.175 457.069,696.323 452.524,687.562 C450.584,683.812 448.994,679.482 448.994,677.932 C448.994,674.74 451.233,672.353 453.434,673.197 C455.746,674.085 459.716,680.748 463.581,690.228 C467.908,700.84 468.865,708.993 468.057,728.358 L467.472,742.358 L462.851,751.858 C456.169,765.593 451.368,779.099 449.633,789.037 C447.889,799.03 446.305,802.576 441.952,806.239 C438.218,809.382 436.427,809.538 434.986,806.846 z M212.5,773.788 C208.428,772.579 195.583,761.505 191.126,755.361 L187.5,750.362 L191.947,753.611 C194.537,755.503 197.669,756.888 199.447,756.929 C204.353,757.042 206.321,758.277 209.05,762.957 C211.551,767.244 211.774,767.372 217.559,767.859 C222.889,768.308 223.535,768.604 223.837,770.746 C224.023,772.059 223.573,773.514 222.837,773.981 C221.162,775.043 216.429,774.954 212.5,773.788 z M192.161,738.368 C189.774,736.996 183.249,732.352 177.661,728.048 C172.071,723.748 163.221,717.398 158.001,713.938 C146.847,706.563 141.407,701.579 135.532,693.355 C125.549,679.38 122.874,671.699 125.973,665.908 C128.081,661.969 129.58,663.786 132.741,674.113 C134.907,681.19 136.995,685.802 139.474,688.984 C143.978,694.765 161.5,708.863 178.501,720.384 C196.686,732.708 200.175,735.627 199.806,738.206 C199.377,741.204 197.182,741.25 192.162,738.364 z M143.9,724.693 C141.48,722.951 134.283,716.989 127.906,711.443 C121.529,705.897 113.577,699.001 110.235,696.119 C106.127,692.577 103.241,689.012 101.329,685.119 C98.5623,679.484 98.4932,678.93 98.1613,659.688 C97.9624,648.155 98.2912,636.993 98.956,632.709 C100.232,624.486 104.661,614.549 107.273,614.045 C109.357,613.643 109.492,616.975 108.037,632.859 C105.323,662.504 104.859,675.584 106.392,679.254 C108.609,684.559 115.692,691.638 133.603,706.446 C149.829,719.861 153.607,723.836 152.608,726.44 C151.734,728.717 148.627,728.093 143.901,724.693 z M219.222,688.302 C216.136,686.14 216.442,683.791 220.297,680.055 C224.432,676.047 225.539,676.055 228.01,680.108 C230.518,684.221 230.504,684.445 227.545,687.404 C224.707,690.242 222.354,690.495 219.222,688.302 z M295.59,667.307 C293.236,661.904 291.321,659.493 284.663,653.557 C268.843,639.451 265.052,635.573 260.168,628.509 C254.371,620.123 238.315,592.233 230.856,577.591 C226.038,568.134 224.613,566.342 212.071,553.97 C204.606,546.606 197.715,539.407 196.756,537.97 C194.742,534.953 194.453,529.804 196.199,528.058 C199.404,524.853 201.121,526.456 215.264,545.858 C219.474,551.633 225.45,558.558 228.544,561.246 C233.548,565.594 234.979,567.811 241.492,581.312 C249.416,597.735 256.513,607.995 278.532,634.858 C293.647,653.298 300.665,663.062 301.484,666.791 C302.107,669.624 300.73,673.858 299.186,673.858 C298.778,673.858 297.16,670.909 295.59,667.306 z M456.03,661.608 C451.384,653.508 451.808,651.529 459.842,643.808 C470.169,633.882 475.277,632.485 476.544,639.241 C477.43,643.967 476.628,644.859 471.489,644.859 C467.378,644.859 466.884,645.163 463.798,649.609 C460.884,653.805 460.511,655.087 460.593,660.609 C460.644,664.046 460.315,666.859 459.863,666.859 S457.685,664.496 456.029,661.609 z M114.99,648.338 C113.606,646.671 113.98,639.166 116.559,616.861 C118.226,602.448 118.41,592.053 117.062,588.508 C116.544,587.146 114.069,584.62 111.562,582.895 C107.452,580.065 107.002,579.365 107.002,575.825 C107.002,572.697 107.532,571.549 109.603,570.192 C112.879,568.045 114.415,568.9 118.742,575.274 C124.392,583.596 126.005,590.933 125.982,608.206 C125.962,624.036 124.036,642.486 121.92,647.132 C120.525,650.194 117.034,650.799 114.988,648.334 z M396.39,637.778 C392.727,634.115 388.226,632.928 377.497,632.797 C373.097,632.743 367.472,632.395 364.997,632.023 C359.269,631.163 358.677,628.718 363.041,623.951 L366.15,620.556 L376.823,621.148 C390.262,621.895 396.219,623.701 403.9,629.355 C408.502,632.742 409.997,634.448 409.997,636.31 C409.997,641.66 401.219,642.607 396.39,637.778 z M288.07,624.431 C287.424,623.653 286.806,621.065 286.698,618.681 C286.506,614.49 286.606,614.336 289.691,614.038 C295.321,613.493 300.519,621.532 296.456,624.503 C294.053,626.26 289.556,626.222 288.07,624.432 z M395.39,617.504 C392.289,614.837 392.571,612.83 396.401,610.321 C398.74,608.788 399.111,608.798 401.955,610.478 C405.451,612.543 405.947,615.681 403.173,618.192 C400.674,620.453 398.605,620.27 395.39,617.504 z M563.88,612.097 C563.284,610.563 563.021,606.03 563.286,601.847 C563.688,595.488 565.134,590.693 572.784,570.347 C577.747,557.147 584.065,541.397 586.824,535.347 C590.213,527.915 592.374,521.428 593.487,515.347 C596.2,500.525 604.331,485.333 628.917,449.152 C643.294,427.994 645.973,422.415 646.688,412.141 C646.986,407.854 647.864,403.334 648.638,402.097 C651.762,397.1 656.814,401.031 657.732,409.173 C658.594,416.82 649.147,436.618 634.507,457.847 C625.852,470.397 610.967,495.579 606.405,505.39 C604.603,509.263 602.615,515.564 601.985,519.39 C600.836,526.371 597.543,533.926 578.899,572.347 L571.62,587.347 L571.56,598.517 C571.503,608.919 571.332,609.864 569.075,612.267 C566.008,615.531 565.206,615.505 563.881,612.097 z M16.5,610.857 C16.1598,610.306 19.1707,606.316 23.191,601.99 C27.2112,597.664 31.3052,592.945 32.2886,591.502 C33.272,590.06 38.447,585.37 43.7886,581.079 S55.2516,570.933 57.3906,568.068 C59.9824,564.597 62.002,562.858 63.4406,562.858 C66.2107,562.858 68.0001,564.666 68.0001,567.465 C68.0001,569.852 65.1401,572.413 48.6441,584.801 C43.2234,588.871 34.4661,596.625 29.1831,602.03 C19.8964,611.532 17.8131,612.982 16.4991,610.857 z M528.08,580.49 C525.6,576.477 525.402,573.3 527.58,572.465 C532.454,570.595 540.998,573.352 540.998,576.794 C540.998,579.271 535.481,583.858 532.503,583.858 C530.923,583.858 529.484,582.762 528.08,580.49 z M6.74994,565.78 C4.49254,564.465 4.56884,562.409 7.08085,556.86 C9.93995,550.544 13.18,547.504 22.8269,542.09 C31.507,537.217 34.1339,534.714 39.0648,526.61 C41.7023,522.276 42.2902,521.86 45.7775,521.86 C49.915,521.86 51.9995,523.25 51.9995,526.008 C51.9995,528.664 35.5295,545.498 32.2565,546.188 C28.2454,547.034 15.7705,556.817 13.8826,560.597 C12.0528,564.26 10.0583,566.874 9.12775,566.829 C8.78195,566.819 7.71205,566.339 6.74955,565.779 z M616.19,563.585 C614.338,561.354 613.615,552.427 615.181,551.128 C617.873,548.893 629.004,556.073 629.004,560.044 C629.004,561.124 621.224,564.806 618.876,564.838 C617.98,564.85 616.772,564.286 616.19,563.585 z M338.63,553.61 C336.841,546.933 338.99,543.86 345.449,543.86 C350.003,543.86 351.243,544.74 352.926,549.167 C353.877,551.666 353.683,552.082 350.734,553.88 C348.897,555 345.714,555.854 343.366,555.856 C339.924,555.859 339.132,555.484 338.63,553.61 z M220.65,548.031 C218.403,545.548 218.572,543.895 221.433,540.36 C223.444,537.874 224.172,537.548 225.678,538.459 C226.677,539.063 228.159,540.726 228.97,542.155 C230.339,544.566 230.273,544.935 228.046,547.306 C225.212,550.322 222.926,550.546 220.65,548.031 z M16.67,526.191 C15.3458,524.867 16.0487,522.164 18.2533,520.102 C20.8395,517.683 32.7682,511.84 35.0033,511.898 C36.6147,511.94 29.1054,519.279 22.6033,524.016 C18.5054,527.002 17.7556,527.277 16.67,526.191 z M359,523.961 C355.467,522.987 354.949,517.699 358.166,515.446 C361.737,512.945 364.733,513.433 366.474,516.8 C369.864,523.355 366.943,526.152 359,523.961 z M459.08,520.435 C456.131,517.296 456.984,514.551 461.923,511.283 C466.257,508.414 468.329,508.816 469.999,512.848 C471.54,516.567 470.682,519.016 467.097,521.134 C463.215,523.427 461.773,523.301 459.08,520.435 z M215.4,521.085 C212.703,519.284 212.104,516.182 213.119,509.264 C214.293,501.259 213.874,496.281 210.486,477.976 C209.131,470.651 207.724,459.1 207.361,452.307 L206.701,439.957 L200.96,434.053 C194.758,427.676 187.322,417.197 188.302,416.216 C188.942,415.576 197.863,421.776 199.991,424.339 C200.681,425.17 201.695,425.851 202.244,425.851 C202.793,425.851 201.645,423.903 199.694,421.521 C193.012,413.367 191.662,409.664 192.225,401.029 C192.5,396.806 192.525,392.788 192.28,392.101 C191.52,389.971 190,390.731 190,393.251 C190,395.806 187.952,397.16 185.508,396.222 C180.131,394.159 179.58,362.944 184.604,345.036 C185.88,340.488 186.603,339.503 189.584,338.258 C192.353,337.101 195,333.788 195,331.479 C195,331.342 192.355,331.421 189.123,331.655 C181.395,332.214 170.435,330.304 165.473,327.533 C160.443,324.724 154.456,316.216 156.109,314.225 C157.321,312.764 161.769,312.407 163.615,313.623 C164.229,314.027 165.743,316.382 166.981,318.857 C171.273,327.438 172.119,327.729 188.293,326.201 C195.665,325.505 196.321,324.963 197.268,318.788 L197.814,315.219 L191.657,313.973 C185.99,312.827 184.979,312.19 178.977,305.993 C171.333,298.101 165.826,288.63 167.757,286.699 C170.307,284.15 174.273,287.022 179.721,295.362 C185.257,303.839 190.394,309.224 192.329,308.581 C192.972,308.367 193.729,306.88 194.009,305.276 C194.474,302.613 194.119,302.174 189.93,300.233 C185.35,298.103 181,293.743 181,291.273 C181,288.423 183.386,288.845 189.305,292.74 C195.389,296.743 195.512,296.777 196.15,294.583 C197.423,290.212 197.032,288.812 194.25,287.773 C187.38,285.207 182.511,282.255 177.313,277.505 C169.048,269.951 168.709,268.66 171.066,253.756 C173.139,240.654 174.331,236.52 176.914,233.488 C179.135,230.881 192.697,224.219 199.81,222.242 L205.757,220.588 L213.629,224.646 C217.958,226.878 223.841,229.973 226.702,231.525 C233.941,235.452 234.954,234.229 231.952,225.188 C227.715,212.428 222.461,209.846 204.524,211.713 C197.124,212.482 195.302,213.016 194.152,214.748 C192.619,217.056 188.001,217.638 188.001,215.523 C188.001,213.831 191.587,210.545 195.701,208.466 C198.005,207.302 201.668,206.849 208.784,206.849 C214.22,206.849 218.965,206.551 219.33,206.186 C219.695,205.821 218.532,204.587 216.747,203.443 L213.5,201.363 L216.845,201.035 C220.951,200.634 226.411,204.162 231.911,210.769 C237.166,217.083 238.996,221.013 239.024,226.049 C239.038,228.414 239.505,232.327 240.062,234.744 C240.95,238.597 240.828,239.403 239.07,241.274 C237.169,243.297 237.141,243.694 238.527,248.879 C240.74,257.161 243.047,271.197 243.209,277.372 C243.321,281.614 242.854,283.555 241.177,285.823 C238.847,288.974 238.271,292.849 240.132,292.849 C243.062,292.849 247.854,285.626 251.023,276.434 C254.63,265.969 257.024,262.725 259.809,264.529 C262.784,266.456 261.526,271.314 255.518,281.091 C243.209,301.121 232.796,313.193 218.751,323.717 C215.672,326.023 214.001,328.029 214.001,329.416 C214.001,330.769 211.608,333.764 207.501,337.553 C201.783,342.828 201.001,343.99 201.001,347.2 C201.001,349.207 201.285,350.849 201.632,350.849 C203.528,350.849 221.907,339.338 231.923,331.877 C238.291,327.133 249.678,319.083 257.228,313.987 C264.778,308.891 271.863,303.446 272.973,301.888 C274.438,299.831 275.092,297.039 275.358,291.702 C275.7,284.839 275.884,284.327 278.113,284.004 C281.436,283.523 282.79,282.198 285.573,276.707 C288.998,269.948 294,265.554 294,269.304 C294,270.104 290.625,277.579 286.5,285.915 C278.039,303.014 277.168,307.202 281.711,308.929 C283.764,309.71 285.433,309.574 288.589,308.369 C294.302,306.187 296.413,303.664 295.663,299.914 C295.203,297.611 295.652,296.228 297.622,293.887 C300.484,290.485 302.511,290.117 305.778,292.406 C309.603,295.085 308.623,298.386 302.05,304.96 C292.924,314.086 285.579,316.197 279.818,311.35 C278.184,309.975 275.826,308.85 274.579,308.85 C270.724,308.85 256.15,319.063 232.501,338.337 C227.001,342.819 218.971,349.13 214.656,352.361 C207.452,357.755 206.995,358.303 209.062,359.068 C210.488,359.596 213.236,359.342 216.561,358.375 C224.172,356.163 226.856,356.49 232.955,360.375 C235.955,362.286 238.943,363.85 239.596,363.85 C240.25,363.85 241.499,362.063 242.372,359.88 C243.516,357.022 245.075,355.342 247.941,353.88 C253.673,350.956 254.84,351.375 251.342,355.1 C245.409,361.418 246.16,365.04 253.207,364.095 C256.757,363.619 257.245,363.772 256.699,365.196 C256.166,366.585 256.792,366.849 260.61,366.849 C265.344,366.849 268.207,364.868 272.167,358.849 L273.812,356.349 L277.657,360.01 C284.284,366.32 291.985,366.877 292.017,361.05 C292.04,356.713 294.231,353.35 297.031,353.35 C299.447,353.35 299.494,353.5 299.166,360.059 C298.846,366.454 298.944,366.797 301.26,367.378 C302.596,367.713 305.222,367.592 307.095,367.109 C310.415,366.253 310.51,366.086 310.801,360.562 C311.037,356.102 311.559,354.573 313.252,353.387 C316.147,351.359 316.967,352.807 316.987,359.977 C317.003,366.17 318.388,368.216 322.197,367.676 C324.113,367.405 324.586,366.603 325.002,362.927 C325.277,360.495 325.952,358.387 326.502,358.243 C327.052,358.099 328.868,359.864 330.537,362.165 C335.02,368.345 338.583,368.302 357.951,361.834 C371.085,357.448 374.725,356.64 383.628,356.136 C396.298,355.418 396.801,354.407 388.002,347.35 C381.964,342.506 380.73,340.275 383.504,339.21 C386.45,338.08 390.342,340.032 396.11,345.535 C401.521,350.695 402.236,351.073 405.571,350.532 C409.256,349.934 412.001,348.306 412.001,346.719 C412.001,346.232 408.626,344.163 404.501,342.122 C396.643,338.234 395.509,336.51 398.83,333.505 C401.842,330.778 405.266,331.55 411.447,336.35 C417.759,341.251 421.035,341.918 426.051,339.324 C429.738,337.417 429.805,336.069 426.251,335.268 C417.131,333.214 416.001,332.731 416.001,330.884 C416.001,328.919 419.816,325.36 423.01,324.347 C424.025,324.025 426.518,324.456 428.55,325.305 C433.077,327.197 433.001,327.197 433.001,325.318 C433.001,322.494 435.924,322.625 442.599,325.748 C446.276,327.469 450.845,328.84 452.864,328.828 C456.707,328.804 465.002,325.555 465.002,324.073 C465.002,322.708 460.98,319.45 455.502,316.377 C452.752,314.834 449.714,312.89 448.752,312.056 C445.105,308.897 447.382,305.104 454.246,302.9 C457.58,301.83 458.568,301.963 463.246,304.114 C468.698,306.62 475.001,311.352 475.001,312.938 C475.001,314.32 469.1,314.009 463.586,312.337 C460.883,311.517 458.485,311.032 458.258,311.26 C458.03,311.487 460.011,312.943 462.659,314.495 C469.268,318.368 476.623,318.389 483.105,314.555 C485.636,313.057 488.515,310.94 489.501,309.851 C491.248,307.92 491.201,307.831 487.68,306.359 C485.692,305.529 482.251,304.849 480.034,304.849 C475.477,304.849 474.719,303.288 478.567,301.825 C482.62,300.284 485.261,300.662 489.217,303.349 C493.695,306.392 496.886,306.515 500.367,303.777 C504.562,300.477 504.728,300.638 492.752,296.375 C487.504,294.507 486.575,292.246 490.636,291.226 C492.48,290.764 494.889,291.358 498.659,293.207 C506.417,297.012 509.412,296.699 517.057,291.283 C520.602,288.772 524.156,286.341 524.955,285.88 C526.924,284.745 524.921,282.326 520.069,279.977 C516.809,278.399 513.658,278.314 483.502,279.001 C454.331,279.664 448.762,280.059 435.502,282.404 C422.336,284.732 416.987,285.118 391.749,285.563 C375.935,285.842 361.435,285.778 359.528,285.42 C357.621,285.063 354.745,283.663 353.137,282.31 S349.876,279.849 349.464,279.849 C349.052,279.849 349.009,283.02 349.369,286.894 C350.208,295.916 349.26,297.849 344,297.849 C341.838,297.849 338.479,297.091 336.536,296.164 C333.222,294.584 332.782,294.584 329.468,296.164 C327.524,297.091 325.55,297.849 325.082,297.849 C324.034,297.849 321.002,291.631 321.002,289.483 C321.002,287.491 326.785,280.849 328.52,280.849 C329.24,280.849 331.215,283.099 332.907,285.849 C336.002,290.88 338.411,292.04 340.802,289.649 C343.161,287.29 341.614,272.487 338.824,270.718 C338.097,270.257 335.679,269.873 333.452,269.865 C329.107,269.848 327.002,268.494 327.002,265.717 C327.002,263.541 329.969,262.575 336.448,262.642 C343.658,262.716 346.251,264.019 352.56,270.74 C360.878,279.6 362.97,280.366 378.501,280.247 C393.775,280.129 417.33,277.61 430.891,274.645 C438.346,273.015 445.168,272.443 461.306,272.094 L482.11,271.646 L481.806,268.036 C481.526,264.715 481.152,264.325 477.135,263.167 C474.734,262.475 463.588,261.131 452.368,260.181 L431.967,258.454 L430.354,260.757 C429.466,262.024 427.239,263.688 425.403,264.455 C418.83,267.201 379.466,265.62 371.103,262.273 C365.226,259.922 362.995,253.849 368.009,253.849 C369.047,253.849 373.633,255.186 378.2,256.819 C388.157,260.38 396.679,261.832 407.687,261.842 C415.968,261.85 422.097,260.462 420.415,258.96 C418.328,257.096 410.262,255.64 408.184,256.752 C404.152,258.91 395.083,257.213 389.716,253.297 C387.6,251.753 387.728,251.711 392.606,252.339 C396.231,252.806 398.794,252.545 401.444,251.438 C405.956,249.552 405.668,247.349 400.909,247.349 C397.6,247.349 397.501,247.234 397.501,243.349 C397.501,239.814 397.207,239.315 394.971,239.054 C392.882,238.81 392.271,239.321 391.471,241.977 C390.701,244.531 389.169,245.909 384.044,248.656 L377.587,252.116 L374.804,248.782 C371.629,244.979 366.747,233.809 364.515,225.243 C362.629,218.002 362.567,208.822 364.376,204.494 C366.343,199.785 371.542,194.203 376.888,191.061 C381.031,188.626 382.467,188.35 391.001,188.352 C402.251,188.355 407.453,189.889 409.475,193.8 C411.545,197.804 412.984,207.932 412.993,218.561 C413,226.776 413.24,227.995 415.215,229.835 L417.429,231.898 L415.51,235.462 C414.454,237.423 412.476,239.903 411.116,240.973 C408.866,242.743 408.784,243.062 410.215,244.492 C411.645,245.923 412.414,245.693 418.702,241.957 C422.505,239.698 426.378,237.849 427.309,237.849 C430.45,237.849 429.029,241.202 423.868,245.972 L418.734,250.716 L424.118,252.237 C436.553,255.749 452.664,256.772 456.452,254.289 C459.732,252.14 477.382,250.9 505.001,250.881 C535.88,250.859 540.614,251.795 554.562,260.687 C557.345,262.462 561.395,264.154 563.562,264.446 C571.244,265.485 572.32,266.013 578.258,271.651 C591.359,284.09 598.214,297.88 599.59,314.569 C600.282,322.965 600.265,323.032 591.743,345.58 C585.903,361.1 583.033,363.53 583.033,352.95 C583.033,348.174 583.749,345.747 587.153,338.967 C590.208,332.883 591.672,328.318 592.818,321.308 C594.25,312.542 594.236,311.397 592.625,305.601 C590.703,298.687 583.169,286.648 575.294,277.905 L570.393,272.463 L566.325,275.732 C562.366,278.914 554.812,287.768 550.021,294.846 C544.464,303.053 521.843,333.846 520.979,334.38 C520.459,334.701 520.034,336.243 520.034,337.807 C520.034,340.047 519.417,340.865 517.128,341.663 C515.53,342.22 513.953,343.524 513.625,344.56 C513.296,345.596 513.667,351.011 514.451,356.591 C515.234,362.172 515.633,367.662 515.338,368.792 C514.381,372.449 516.745,370.984 522.108,364.596 C529.305,356.024 534.495,347.831 543.496,330.831 C554.499,310.051 555.448,309.621 548.994,328.337 C541.802,349.195 535.33,359.551 517.637,378.51 C511.179,385.431 509.927,387.343 509.417,391.061 C508.74,396.002 511.263,407.49 513.524,409.759 C515.402,411.645 515.956,411.151 528.55,396.345 C541.746,380.833 542.961,378.965 547.965,366.514 C552.174,356.041 554.591,352.663 558.788,351.391 C562.218,350.351 562.597,353.029 560.022,360.131 C553.527,378.053 540.1,398.788 526.644,411.678 C523.008,415.161 520.033,418.547 520.033,419.202 S518.092,423.801 515.718,427.965 S510.882,436.843 510.243,438.441 C508.382,443.1 507.049,453.616 507.041,463.709 C507.035,471.431 507.408,473.74 509.171,476.877 C511.773,481.507 511.304,483.014 506.555,485.267 C500.049,488.355 499.675,487.593 500.317,472.572 C500.993,456.751 503.178,443.751 507.117,432.095 C508.715,427.368 509.882,423.36 509.711,423.189 C509.539,423.017 501.675,424.444 492.236,426.361 C472.955,430.274 465.328,430.777 464.339,428.2 C462.992,424.689 467.802,422.971 487.533,419.911 C501.911,417.682 507.646,416.279 508.582,414.765 C509.042,414.02 503.823,396.674 502.325,393.971 C501.934,393.265 485.532,404.157 478.032,410.102 C467.267,418.634 463.174,420.768 452.247,423.543 C445.391,425.284 437.528,428.49 425.532,434.439 C403.864,445.182 393.058,448.318 378.032,448.223 C365.497,448.143 366.462,448.382 328.032,435.866 C311.257,430.402 289.657,423.455 280.032,420.427 C263.292,415.16 258.032,412.855 258.032,410.789 C258.032,410.27 259.095,409.846 260.394,409.846 C264.418,409.846 290.259,417.495 319.532,427.352 C364.062,442.346 370.405,443.143 365.639,433.149 C364.352,430.449 364.231,429.311 365.12,428.24 C366.968,426.014 368.948,426.62 369.55,429.596 C371.033,436.937 371.31,437.263 378.04,439.618 C383.315,441.465 386.125,441.824 393.032,441.533 C403.135,441.107 406.806,439.691 429.534,427.455 C440.041,421.798 447.892,418.3 453.367,416.835 C463.186,414.208 465.88,412.641 472.984,405.418 C477.238,401.093 479.807,399.418 484.681,397.797 C489.391,396.229 492.721,394.118 498.229,389.207 C508.157,380.355 508.569,379.202 506.997,364.596 C506.301,358.134 505.535,352.846 505.294,352.846 S501.858,355.567 498.194,358.892 C491.292,365.156 482.293,370.124 475.761,371.278 C473.687,371.644 466.612,372.575 460.039,373.345 C447.769,374.795 444.029,375.935 444.029,378.245 C444.029,378.971 445.638,381.674 447.605,384.25 C450.353,387.848 451.312,390.195 451.743,394.372 C452.218,398.972 452.031,399.915 450.531,400.491 C447.582,401.622 445.785,399.567 443.359,392.289 C438.132,376.607 436.257,374.87 427.116,377.241 C421.924,378.588 417.029,381.285 417.029,382.799 C417.029,383.294 419.534,385.839 422.596,388.455 C428.804,393.759 431.029,397.28 431.029,401.804 C431.029,406.951 428.115,405.516 418.988,395.875 C411.822,388.305 409.951,386.853 407.36,386.853 C405.662,386.853 403.774,387.455 403.163,388.191 C401.881,389.736 403.671,391.63 411.203,396.7 C417.09,400.662 419.203,402.762 418.478,403.934 C417.174,406.044 413.234,404.509 405.466,398.866 C400.934,395.573 396.027,392.423 394.561,391.866 C390.069,390.158 382.67,390.728 373.389,393.497 C361.487,397.049 356.259,396.948 347.684,393.002 C340.124,389.523 339.198,389.363 335.74,390.938 C331.882,392.696 329.952,397.181 329.211,406.11 C328.476,414.963 327.056,416.738 323.532,413.215 C322.086,411.769 321.87,410.152 322.248,403.624 C322.679,396.176 322.893,395.576 326.411,391.974 C329.601,388.707 329.912,388.003 328.635,386.942 C327.818,386.264 325.9,385.854 324.372,386.032 C322.12,386.293 320.732,387.772 317.029,393.854 C313.101,400.305 312.03,401.396 309.373,401.658 C303.917,402.194 304.684,399.584 312.265,391.821 C318.876,385.051 319.227,384.473 317.499,383.209 C314.136,380.75 309.219,381.522 306.035,385.008 L303.154,388.162 L279.841,387.568 C267.021,387.248 253.151,386.508 249.031,385.938 C244.906,385.363 236.037,384.462 229.323,383.936 C222.608,383.409 216.083,382.44 214.823,381.782 C213.563,381.123 210.478,378.684 207.969,376.36 S202.434,371.615 201.244,370.978 C198.841,369.692 198.527,370.351 197.731,378.364 C197.403,381.671 197.847,382.97 200.3,385.864 C207.231,394.044 218.789,405.208 222.032,406.856 C223.957,407.834 231.123,410.288 237.958,412.308 C244.792,414.329 251.205,416.421 252.208,416.958 C254.458,418.163 254.549,420.19 252.431,421.948 C250.47,423.575 243.434,421.919 228.381,416.285 C217.743,412.304 210.459,408.077 202.424,401.222 C199.615,398.826 197.049,396.865 196.722,396.865 C195.013,396.865 199.407,406.504 203.6,411.953 C208.479,418.293 211.032,425.061 211.032,431.652 C211.032,434.24 212.474,436.866 217.365,443.184 C220.849,447.683 224.025,451.927 224.424,452.614 C225.946,455.235 223.218,453.674 217.732,448.784 L212.032,443.704 L212.033,447.034 C212.033,448.866 213.212,455.089 214.651,460.864 C216.577,468.592 217.437,475.243 217.906,486.055 C218.535,500.535 218.587,500.79 221.452,503.781 C224.309,506.763 224.339,506.91 223.163,512.163 C221.376,520.149 218.679,523.266 215.431,521.098 z M364.5,383.855 C364.841,383.303 364.822,380.864 364.457,378.434 C363.796,374.023 363.789,374.017 360.147,374.491 C351.409,375.628 350.189,375.992 349.608,377.632 C349.272,378.581 348.742,379.898 348.431,380.558 C347.287,382.983 363.042,386.215 364.5,383.855 z M374.963,380.923 C375.533,379.853 376.003,377.373 376.003,375.403 C376.003,372.018 375.85,371.851 373.253,372.4 C371.74,372.72 369.49,373.188 368.253,373.439 C365.487,373.999 365.428,375.402 367.992,379.607 C370.233,383.283 373.386,383.877 374.968,380.922 z M398.208,376.263 C403.867,374.836 409.061,373.205 409.748,372.64 C411.503,371.198 411.416,365.483 409.65,366.161 C408.908,366.446 401.933,367.712 394.15,368.974 C385.405,370.392 379.998,371.712 379.998,372.429 C379.998,374.496 384.09,378.858 386.03,378.858 C387.068,378.858 392.548,377.69 398.207,376.263 z M194.878,370.739 C194.96,369.612 193.868,368.936 191.287,368.518 C185.855,367.636 185.334,369.594 189.785,374.161 L193.496,377.97 L194.128,375.164 C194.475,373.621 194.813,371.629 194.878,370.739 z M430.408,366.46 C434.467,364.764 435.367,363.466 434.601,360.414 L434.017,358.084 L426.757,360.918 C422.765,362.477 418.66,364.007 417.635,364.317 C416.111,364.779 415.997,365.152 417.008,366.369 C418.587,368.273 425.95,368.322 430.408,366.46 z M446.036,361.82 C447.671,360.185 447.941,359.047 447.403,356.07 C447.034,354.028 446.582,352.185 446.397,351.973 C445.895,351.397 440.809,353.689 438.256,355.642 L436.013,357.358 L437.991,360.608 C440.283,364.375 443.062,364.794 446.036,361.82 z M470.705,359.579 C472.281,358.003 472.274,357.66 470.592,354.127 C469.604,352.054 467.239,348.235 465.336,345.64 L461.876,340.923 L454.937,345.537 C451.127,348.067 448.007,350.347 448.007,350.587 C448.007,351.277 452.085,357.065 454.42,359.689 C456.278,361.776 457.194,361.99 462.769,361.641 C466.883,361.383 469.609,360.671 470.714,359.566 z M480.959,355.378 C484.999,353.288 488.009,349.108 488.009,345.598 C488.009,343.94 486.421,340 484.436,336.732 C481.199,331.404 480.611,330.908 478.186,331.469 C475.539,332.081 467.009,336.561 467.009,337.339 C467.009,338.6 474.356,353.578 475.707,355.071 C477.649,357.217 477.428,357.204 480.97,355.372 z M194.819,352.908 C195.069,352.158 194.694,351.783 193.944,352.033 C193.222,352.273 192.435,353.061 192.194,353.783 C191.944,354.533 192.319,354.908 193.069,354.658 C193.791,354.417 194.578,353.63 194.819,352.908 z M500.779,340.635 C502.58,339.544 504.724,337.354 505.545,335.768 C506.9,333.147 506.853,332.363 505.029,327.173 C503.925,324.032 502.586,321.026 502.053,320.494 C501.429,319.869 498.606,321.189 494.105,324.208 L487.126,328.891 L488.651,334.118 C489.489,336.993 490.837,340.38 491.646,341.645 C493.294,344.224 495.2,344.013 500.779,340.635 z M206.039,329.025 C203.979,328.335 202.009,329.785 202.009,331.995 L202.009,334.201 L204.568,331.796 C205.976,330.473 206.636,329.228 206.035,329.027 z M514.359,322.599 C516.852,317.342 520.008,312.351 524.901,305.924 L527.514,302.493 L519.514,306.695 C515.114,309.006 509.521,312.622 507.086,314.73 L502.657,318.564 L505.378,323.207 C509.051,329.474 511.166,329.331 514.359,322.599 z M217.229,320.319 C220.799,317.969 227.009,310.579 227.009,308.699 C227.009,307.203 224.074,307.783 219.226,310.237 C216.632,311.55 212.641,313.183 210.358,313.865 C207.136,314.829 206.089,315.693 205.678,317.728 C205.387,319.17 204.817,321.208 204.411,322.258 C203.727,324.027 204.031,324.118 208.558,323.498 C211.244,323.129 215.148,321.699 217.233,320.319 z M202.491,306.227 C204.505,301.408 204.427,301.046 201.504,301.605 C199.349,302.017 199.004,302.618 199.004,305.966 C199.004,310.837 200.517,310.951 202.491,306.227 z M218.97,306.868 C220.688,305.948 224.615,301.665 230.914,293.84 C233.016,291.228 234.832,287.446 235.648,283.977 C237.186,277.443 237.408,270.85 236.09,270.85 C235.587,270.85 233.363,274.648 231.146,279.29 C228.8,284.205 226.049,288.429 224.56,289.405 C223.154,290.326 222.004,291.953 222.004,293.02 C222.004,294.405 220.464,295.641 216.62,297.341 C211.852,299.449 211.06,300.236 209.707,304.207 C208.867,306.673 208.387,308.899 208.641,309.153 C209.224,309.737 216.7,308.083 218.97,306.868 z M204.312,296.922 C205.781,296.364 207.018,294.873 207.425,293.172 C207.795,291.62 208.325,289.585 208.602,288.651 C209.11,286.94 205.867,282.849 204.004,282.849 C203.454,282.849 203.004,284.006 203.004,285.421 S202.329,288.667 201.504,289.492 C199.873,291.123 199.418,297.849 200.939,297.849 C201.453,297.849 202.971,297.432 204.312,296.922 z M532.462,278.78 C532.146,278.268 531.183,277.849 530.323,277.849 C529.052,277.849 528.991,278.128 529.995,279.338 C531.287,280.894 533.464,280.402 532.462,278.78 z M551.052,270.249 L553.15,268.149 L550.193,265.192 C548.567,263.566 545.279,261.649 542.885,260.932 C538.345,259.572 513.789,257.967 496.383,257.893 L486.262,257.849 L487.116,262.416 C487.585,264.928 488.267,267.465 488.631,268.054 C489.071,268.767 492.677,268.926 499.399,268.531 C508.567,267.992 510.061,268.161 515.505,270.36 C520.967,272.567 522.734,272.765 535.23,272.567 C547.68,272.37 549.15,272.154 551.053,270.249 z M220.592,267.354 C225.586,264.427 227.585,259.858 226.592,253.642 C225.265,245.343 222.482,242.948 207.142,236.902 C200.958,234.464 198.244,234.326 196.021,236.338 C195.116,237.157 192.605,238.437 190.442,239.183 C183.782,241.48 184.343,248.097 191.555,252.324 C196.608,255.286 198.008,257.882 198.008,264.292 L198.008,268.604 L202.258,268.18 C205.624,267.845 211.174,268.478 215.92,269.74 C216.147,269.801 218.249,268.727 220.591,267.354 z M209.429,263.312 C208.109,260.153 208.122,259.413 209.551,256.403 C213.17,248.775 216.568,248.247 220.362,254.724 C222.1,257.69 222.112,258.043 220.557,260.416 C218.99,262.808 213.444,266.838 211.708,266.846 C211.267,266.848 210.242,265.258 209.429,263.312 z M384.689,225.999 C385.89,225.367 388.323,224.849 390.094,224.849 C393.099,224.849 393.209,224.732 391.729,223.097 C387.802,218.758 387.878,214.271 391.932,211.131 C394.212,209.365 394.915,209.559 396.162,212.295 C398.671,217.803 403.26,215.417 402.32,209.092 C400.999,200.197 397.412,198.953 386.866,203.734 C383.367,205.32 379.706,206.885 378.731,207.211 C377.756,207.537 376.669,208.56 376.314,209.485 C374.931,213.087 380.17,230.731 381.855,228.145 C382.212,227.597 383.487,226.631 384.688,225.999 z M402.409,223.238 C402.919,221.909 402.543,221.746 400.266,222.309 C396.038,223.353 395.114,224.849 398.698,224.849 C400.619,224.849 402.025,224.239 402.409,223.238 z M97.1089,509.248 C94.6292,506.095 94.7252,505.08 99.1117,488.047 C105.673,462.569 110.169,462.554 108.084,488.018 C106.379,508.839 102.575,516.198 97.1087,509.249 z M569.099,491.458 C567.136,489.093 570.896,481.554 574.857,479.914 C579.086,478.162 580.77,479.055 581.602,483.49 C582.7,489.345 580.55,492.278 574.89,492.649 C571.781,492.852 569.942,492.474 569.099,491.458 z M753.189,490.356 C751.127,487.734 748.35,477.455 747.28,468.484 C746.718,463.768 746.766,463.652 748.815,464.749 C749.979,465.371 752.295,467.863 753.962,470.287 C761.008,480.528 760.282,499.374 753.189,490.356 z M87.7589,484.786 C86.3681,483.965 86.01,482.378 86.0145,477.053 C86.0245,465.196 88.8399,459.158 95.7268,456.224 C97.4966,455.469 99.1841,454.852 99.4768,454.852 C100.814,454.852 99.7482,459.185 96.9293,465.208 C94.9594,469.418 93.6081,474.229 93.1793,478.558 C92.4778,485.642 91.3689,486.916 87.7589,484.785 z M290.009,480.796 C271.44,473.158 262.171,467.967 254.968,461.172 C247.59,454.212 245.415,451.335 246.856,450.444 C247.325,450.154 256.664,455.134 267.609,461.512 C295.169,477.57 298.789,478.961 302.455,474.909 C304.611,472.526 313.349,471.25 317.259,472.747 C320.654,474.046 320.898,477.23 317.759,479.253 C315.551,480.676 307.925,482.585 301.009,483.445 C298.608,483.744 295.156,482.912 290.009,480.795 z M58.4389,473.686 C54.8589,465.756 51.1939,461.986 40.0119,454.756 C33.9609,450.846 29.0099,447.206 29.0099,446.666 C29.0099,445.378 35.1391,446.408 46.0099,449.524 C59.9939,453.531 63.8939,456.26 65.4349,463.119 C65.9573,465.444 65.6487,466.039 63.4972,466.857 C61.083,467.775 60.9758,468.114 61.603,472.841 C62.4226,479.02 61.0118,479.4 58.4389,473.695 z M572.189,453.529 C569.559,450.729 569.432,448.665 571.765,446.616 C574.99,443.784 577.824,443.562 581.53,445.852 C585.88,448.541 585.909,450.059 581.67,453.292 C577.526,456.453 574.996,456.516 572.189,453.529 z M60.2789,445.829 C59.0531,445.335 55.7879,443.144 53.0228,440.958 C49.1367,437.886 45.0454,436.054 35.0018,432.887 C24.0808,429.437 22.0078,428.467 22.0078,426.807 C22.0078,423.747 28.2225,421.119 32.0478,422.563 C33.6758,423.173 35.0078,423.453 35.0078,423.193 C35.0078,422.929 32.9802,420.223 30.5021,417.181 S25.6997,410.468 25.3372,409.023 C24.5856,406.029 26.6005,392.854 28.0287,391.426 C29.4713,389.984 29.932,390.904 32.9064,401.168 C36.0697,412.085 40.3585,419.841 47.5484,427.648 C52.3372,432.848 52.9106,433.164 59.0484,433.98 C64.0775,434.649 66.0051,435.405 67.7511,437.391 C70.6957,440.741 71.7103,444.789 69.8936,445.94 C68.1384,447.051 63.1818,446.992 60.2796,445.824 z M170.509,439.049 C156.444,431.269 144.152,420.83 141.456,414.377 C139.002,408.503 139.651,400.675 143.563,388.977 C148.73,373.525 153.479,364.145 157.323,361.801 C161.678,359.145 163.01,359.343 163.01,362.647 C163.01,366.206 156.207,386.336 152.127,394.85 C147.4,404.712 148.118,410.946 154.671,416.952 C156.232,418.383 162.128,422.795 167.772,426.755 C179.119,434.718 182.013,437.935 180.006,440.354 C178.242,442.48 176.209,442.2 170.51,439.047 z M539.369,416.343 C538.709,414.622 540.348,411.912 545.159,406.768 C548.78,402.897 557.491,398.932 559.019,400.459 C560.302,401.742 556.299,409.394 551.915,414.04 C548.864,417.274 547.687,417.85 544.134,417.85 C541.326,417.85 539.757,417.354 539.369,416.342 z M348.209,358.143 C347.054,357.162 342.193,348.935 337.407,339.86 C329.937,325.698 328.709,322.686 328.739,318.602 C328.775,313.847 330.423,310.382 332.144,311.445 C333.42,312.234 339.432,324.363 343.006,333.36 C344.653,337.509 347.604,344.083 349.561,347.971 C353.02,354.84 353.655,358.826 351.407,359.565 C350.803,359.764 349.364,359.124 348.209,358.144 z M356.647,335.11 C355.365,330.556 355.085,327.241 355.878,326.008 C356.498,325.047 357.217,326.034 358.377,329.436 C359.272,332.065 360.005,334.811 360.005,335.538 C360.005,337.497 357.219,337.141 356.647,335.109 z M54.6272,331.33 C50.9631,327.665 53.4952,324.324 67.5022,314.338 C78.8082,306.277 84.7372,303.384 86.6672,304.985 C88.5475,306.546 87.712,311.799 85.2974,313.598 C84.3747,314.286 82.2432,314.874 80.5609,314.905 C73.9966,315.026 70.9794,317.034 65.6179,324.848 C60.2213,332.715 57.5727,334.277 54.6259,331.33 z M301.887,318.66 C301.65,315.733 302.247,311.251 303.081,309.69 C304.533,306.971 310.728,303.632 312.989,304.349 C316.079,305.33 318.442,310.569 317.112,313.489 C315.711,316.565 313.247,316.501 311.811,313.351 C310.19,309.792 308.34,310.25 306.028,314.783 C303.848,319.055 302.055,320.734 301.887,318.66 z M336.497,306.22 C326.083,302.96 327.087,301.35 340.197,300.286 C349.579,299.525 353.998,300.141 353.998,302.211 C353.998,306.57 344.541,308.737 336.498,306.22 z M308.247,281.19 C305.795,280.2 306.93,277.071 310.146,275.95 C313.864,274.654 316.997,274.523 316.997,275.665 C316.997,276.818 311.579,281.868 310.443,281.773 C309.923,281.729 308.935,281.467 308.247,281.189 z M134.467,272.102 C136.991,261.989 148.619,254.783 158.438,257.248 C161.652,258.054 161.862,261.484 158.925,265.217 C157.162,267.459 156.078,267.852 151.662,267.852 C147.386,267.852 145.555,268.469 141.274,271.352 C134.909,275.639 133.547,275.789 134.467,272.102 z M305.367,245.952 C293.857,240.509 287.807,232.325 290.95,226.452 C292.127,224.254 291.796,223.555 286.612,217.27 C277.884,206.689 279.666,206.294 290.751,216.353 C297.363,222.353 297.894,223.564 295.51,227.204 C294.11,229.339 294.219,229.67 297.26,232.528 C299.043,234.204 302.977,237.37 306.002,239.564 C313.25,244.819 314.433,246.254 312.7,247.692 C311.704,248.518 309.875,248.084 305.368,245.953 z M114.997,238.322 C114.997,237.479 115.672,235.174 116.497,233.2 C119.193,226.748 118.228,221.174 111.368,203.554 C109.483,198.714 108.203,194.33 108.524,193.811 C109.373,192.437 116.258,196.23 120.849,200.601 C125.995,205.502 127.261,210.37 126.833,223.614 C126.5,233.933 126.47,234.047 123.232,236.938 C119.702,240.088 115.002,240.878 115.002,238.318 z M351.017,230.377 C348.986,227.93 350.08,205.331 352.465,200.449 C355.372,194.499 360.931,189.207 365.498,188.04 C376.872,185.135 379.165,185.705 372.092,189.681 C367.149,192.459 362.267,197.992 359.763,203.654 C358.228,207.125 357.837,210.16 357.917,218.002 C357.973,223.472 357.548,228.827 356.973,229.901 C355.736,232.214 352.74,232.453 351.017,230.377 z M334.386,225.323 C333.055,223.291 332.862,221.47 333.408,216.073 C336.342,187.083 348.866,171.765 375.448,164.656 C379.542,163.562 380.238,163.642 382.736,165.501 C385.702,167.707 386.918,171.668 384.994,172.857 C384.346,173.257 381.128,172.908 377.843,172.081 C373.079,170.881 371.093,170.809 368.029,171.727 C362.428,173.405 354.688,180.901 348.949,190.209 C342.195,201.161 340.613,206.85 341.508,216.962 C342.013,222.664 341.865,225.311 340.982,226.374 C339.124,228.613 336.24,228.153 334.386,225.324 z M154.266,214.3 C152.241,210.054 152.82,208.784 158.916,204.104 C163.514,200.574 169.764,199.668 171.885,202.224 C172.788,203.313 171.896,204.443 167.522,207.745 C164.497,210.029 161.329,213.237 160.482,214.876 C158.437,218.831 156.334,218.636 154.266,214.301 z M421.066,213.265 C416.864,209.73 417.061,206.75 421.74,203.083 C423.802,201.467 426.536,199.595 427.815,198.924 C430.039,197.757 430.088,197.805 428.94,200.029 C428.279,201.308 426.63,203.839 425.276,205.654 C422.923,208.805 422.765,211.855 424.955,211.855 C425.521,211.855 427.767,210.244 429.947,208.275 C432.838,205.662 434.461,204.869 435.949,205.342 C437.072,205.698 437.99,206.325 437.99,206.735 C437.99,208.774 427.993,215.855 425.116,215.855 C424.58,215.855 422.758,214.69 421.066,213.266 z M251.676,190.815 C250.125,190.359 246.508,188.173 243.638,185.958 C240.767,183.744 235.736,180.694 232.458,179.182 C226.958,176.644 225.215,176.385 209.971,175.838 C200.881,175.511 192.887,174.899 192.205,174.477 C190.018,173.126 191.83,172.082 198.242,171.003 C212.59,168.586 218.233,168.559 231.734,170.842 C243.397,172.815 245.791,172.931 253.513,171.904 C264.745,170.409 269.905,168.399 284.497,159.837 C296.982,152.51 299.974,151.242 302.495,152.21 C305.393,153.322 303.942,155.894 297.909,160.335 C285.666,169.348 276.914,174.118 266.689,177.353 C261.084,179.126 256.619,180.976 256.766,181.463 C257.288,183.183 262.551,183.873 266.997,182.806 C271.304,181.772 286.772,174.044 299.497,166.57 C303.217,164.385 310.826,157.687 319.516,148.948 C327.227,141.194 334.202,134.857 335.016,134.866 C335.831,134.874 337.171,135.307 337.995,135.828 C339.304,136.656 339.254,137.218 337.594,140.3 C334.891,145.32 305.912,173.476 297.071,179.672 C289.003,185.327 284.185,187.104 271.06,189.262 C257.623,191.471 254.696,191.706 251.678,190.817 z M178.959,168.305 C175.893,164.61 187.923,153.433 198.276,150.358 C204.679,148.457 210.365,148.465 233.185,150.409 C254.725,152.243 258.76,151.872 263.61,147.614 C266.644,144.95 267.517,144.651 269.818,145.485 C273.2,146.711 273.036,150.252 269.432,153.849 L266.927,156.349 L236.524,156.059 C201.856,155.729 203.417,155.44 192.495,164.214 C185.21,170.067 181.381,171.224 178.959,168.305 z M425.969,155.965 C419.469,151.881 414.747,146.235 415.557,143.514 C416.481,140.411 418.872,136.846 420.03,136.846 C420.574,136.846 422.547,139.235 424.415,142.154 S429.42,148.561 431.387,149.904 C435.772,152.899 436.261,154.021 434.362,156.732 C432.438,159.478 431.411,159.384 425.969,155.965 z M285.599,150.265 C284.333,146.965 285.123,144.971 289.302,140.921 C293.898,136.468 317.024,119.27 320.679,117.589 C323.494,116.294 325.993,117.268 325.993,119.66 C325.993,121.92 324.108,123.643 317.493,127.434 C314.743,129.01 307.468,135.147 301.326,141.073 C290.405,151.61 286.902,153.658 285.6,150.265 z" id="imagebot_5"/>
   </g>
  </g>
  <title>Layer 1</title>
 </g>
 <metadata>image/svg+xmlOpenclipartForever Alone2011-12-25T14:01:44Traced In Inkscapehttps://openclipart.org/detail/166561/forever-alone-by-ramchandRamchandFFFFUUUUUUUforever aloneinternet memeokay guyrage guy</metadata>
</svg>